<svg width="15" height="15" viewBox="0 0 15 15" fill="none" xmlns="http://www.w3.org/2000/svg">
<g clip-path="url(#clip0_1109_752)">
<path d="M5.01714 11.6426C5.01714 11.7012 4.94758 11.748 4.85988 11.748C4.76008 11.7568 4.69052 11.71 4.69052 11.6426C4.69052 11.584 4.76008 11.5371 4.84778 11.5371C4.93851 11.5283 5.01714 11.5752 5.01714 11.6426ZM4.07661 11.5107C4.05544 11.5693 4.11593 11.6367 4.20665 11.6543C4.28528 11.6836 4.37601 11.6543 4.39415 11.5957C4.4123 11.5371 4.35484 11.4697 4.26411 11.4434C4.18548 11.4229 4.09778 11.4521 4.07661 11.5107ZM5.41331 11.4609C5.3256 11.4814 5.26512 11.5371 5.27419 11.6045C5.28327 11.6631 5.3619 11.7012 5.45262 11.6807C5.54032 11.6602 5.60081 11.6045 5.59173 11.5459C5.58266 11.4902 5.50101 11.4521 5.41331 11.4609ZM7.40323 0.234375C3.20867 0.234375 0 3.31934 0 7.38281C0 10.6318 2.11089 13.4121 5.12601 14.3906C5.5131 14.458 5.64919 14.2266 5.64919 14.0361C5.64919 13.8545 5.64012 12.8525 5.64012 12.2373C5.64012 12.2373 3.52319 12.6768 3.07863 11.3643C3.07863 11.3643 2.73387 10.5117 2.2379 10.292C2.2379 10.292 1.54536 9.83203 2.28629 9.84082C2.28629 9.84082 3.03931 9.89941 3.45363 10.5967C4.11593 11.7275 5.22581 11.4023 5.65827 11.209C5.72782 10.7402 5.9244 10.415 6.14214 10.2217C4.45161 10.04 2.74597 9.80273 2.74597 6.98438C2.74597 6.17871 2.97581 5.77441 3.45968 5.25879C3.38105 5.06836 3.12399 4.2832 3.53831 3.26953C4.17036 3.0791 5.625 4.06055 5.625 4.06055C6.22984 3.89648 6.88004 3.81152 7.52419 3.81152C8.16835 3.81152 8.81855 3.89648 9.42339 4.06055C9.42339 4.06055 10.878 3.07617 11.5101 3.26953C11.9244 4.28613 11.6673 5.06836 11.5887 5.25879C12.0726 5.77734 12.369 6.18164 12.369 6.98438C12.369 9.81152 10.5877 10.0371 8.89718 10.2217C9.1754 10.4531 9.41129 10.8926 9.41129 11.5811C9.41129 12.5684 9.40222 13.79 9.40222 14.0303C9.40222 14.2207 9.54133 14.4521 9.9254 14.3848C12.9496 13.4121 15 10.6318 15 7.38281C15 3.31934 11.5978 0.234375 7.40323 0.234375ZM2.93952 10.3389C2.9002 10.3682 2.90927 10.4355 2.96069 10.4912C3.00907 10.5381 3.07863 10.5586 3.11794 10.5205C3.15726 10.4912 3.14819 10.4238 3.09677 10.3682C3.04839 10.3213 2.97883 10.3008 2.93952 10.3389ZM2.6129 10.1016C2.59173 10.1396 2.62198 10.1865 2.68246 10.2158C2.73085 10.2451 2.79133 10.2363 2.8125 10.1953C2.83367 10.1572 2.80343 10.1104 2.74294 10.0811C2.68246 10.0635 2.63407 10.0723 2.6129 10.1016ZM3.59274 11.1445C3.54435 11.1826 3.5625 11.2705 3.63206 11.3262C3.70161 11.3936 3.78931 11.4023 3.82863 11.3555C3.86794 11.3174 3.8498 11.2295 3.78931 11.1738C3.72278 11.1064 3.63206 11.0977 3.59274 11.1445ZM3.24798 10.7139C3.1996 10.7432 3.1996 10.8193 3.24798 10.8867C3.29637 10.9541 3.37802 10.9834 3.41734 10.9541C3.46573 10.916 3.46573 10.8398 3.41734 10.7725C3.375 10.7051 3.29637 10.6758 3.24798 10.7139Z" fill="white"/>
</g>
<defs>
<clipPath id="clip0_1109_752">
<rect width="15" height="15" fill="white"/>
</clipPath>
</defs>
</svg>
