<svg width="15" height="15" viewBox="0 0 15 15" fill="none" xmlns="http://www.w3.org/2000/svg">
<g clip-path="url(#clip0_1109_744)">
<path d="M15 10.5469V0.703125C15 0.313477 14.6417 0 14.1964 0H3.21429C1.43973 0 0 1.25977 0 2.8125V12.1875C0 13.7402 1.43973 15 3.21429 15H14.1964C14.6417 15 15 14.6865 15 14.2969V13.8281C15 13.6084 14.8828 13.4092 14.702 13.2803C14.5614 12.8291 14.5614 11.543 14.702 11.0918C14.8828 10.9658 15 10.7666 15 10.5469ZM4.28571 3.92578C4.28571 3.8291 4.37612 3.75 4.48661 3.75H11.5848C11.6953 3.75 11.7857 3.8291 11.7857 3.92578V4.51172C11.7857 4.6084 11.6953 4.6875 11.5848 4.6875H4.48661C4.37612 4.6875 4.28571 4.6084 4.28571 4.51172V3.92578ZM4.28571 5.80078C4.28571 5.7041 4.37612 5.625 4.48661 5.625H11.5848C11.6953 5.625 11.7857 5.7041 11.7857 5.80078V6.38672C11.7857 6.4834 11.6953 6.5625 11.5848 6.5625H4.48661C4.37612 6.5625 4.28571 6.4834 4.28571 6.38672V5.80078ZM12.7701 13.125H3.21429C2.62165 13.125 2.14286 12.7061 2.14286 12.1875C2.14286 11.6719 2.625 11.25 3.21429 11.25H12.7701C12.7065 11.751 12.7065 12.624 12.7701 13.125Z" fill="white"/>
</g>
<defs>
<clipPath id="clip0_1109_744">
<rect width="15" height="15" fill="white"/>
</clipPath>
</defs>
</svg>
