<svg width="1427" height="150" viewBox="0 0 1427 150" fill="none" xmlns="http://www.w3.org/2000/svg">
<g clip-path="url(#clip0_1109_546)">
<path opacity="0.33" d="M751.66 100.95C1042.48 233.4 1126.92 49.95 1208.5 100.95C1332.16 178.65 1426.3 89.55 1426.3 89.55V0L-0.000244141 0V89.55C-0.000244141 89.55 88.573 128.7 135.356 133.5C182.138 138.45 224.927 115.05 243.469 100.35C276.702 74.4 363.278 13.05 435.164 7.05C507.049 1.05 723.99 88.5 751.66 100.95Z" fill="#293147"/>
<path opacity="0.66" d="M379.396 100.95C444.292 100.95 489.506 66.15 563.531 42.3C604.323 29.25 777.904 27.15 925.811 100.95C1073.72 174.75 1056.6 49.35 1138.62 100.95C1261.28 177.45 1426.3 59.7 1426.3 59.7V0L-0.000244141 0V54.75C-0.000244141 54.75 40.2214 27 131.362 27C270.711 27.15 319.919 100.95 379.396 100.95Z" fill="#293147"/>
<path d="M333.611 43.35C618.871 -42.9 713.007 141.6 897.142 72.6C1081.14 2.7 1081.14 8.1 1162.72 30.9C1243.73 53.7 1237.6 67.35 1298.08 78.75C1385.51 95.55 1426.3 0 1426.3 0L-0.000244141 0C-0.000244141 0 14.1201 61.35 119.238 72.15C224.357 82.95 243.041 70.5 333.611 43.35Z" fill="#293147"/>
</g>
<defs>
<clipPath id="clip0_1109_546">
<rect width="1426.3" height="150" fill="white" transform="matrix(-1 0 0 1 1426.3 0)"/>
</clipPath>
</defs>
</svg>
