<svg xmlns="http://www.w3.org/2000/svg" xmlns:xlink="http://www.w3.org/1999/xlink" width="200" height="200" viewBox="0 0 200 200" fill="none">
<path d="M175 85.4167L25 85.4167L25 72.9167L175 72.9167L175 85.4167Z" fill-rule="evenodd"  fill="#AEAEAE" >
</path>
<path d="M43.75 108.333C43.75 104.882 46.5482 102.083 50 102.083L83.3333 102.083C86.7851 102.083 89.5833 104.882 89.5833 108.333C89.5833 111.785 86.7851 114.583 83.3333 114.583L50 114.583C46.5482 114.583 43.75 111.785 43.75 108.333Z" fill-rule="evenodd"  fill="#AEAEAE" >
</path>
<path d="M43.75 129.167C43.75 125.715 46.5482 122.917 50 122.917L62.5 122.917C65.9518 122.917 68.75 125.715 68.75 129.167C68.75 132.618 65.9518 135.417 62.5 135.417L50 135.417C46.5482 135.417 43.75 132.618 43.75 129.167Z" fill-rule="evenodd"  fill="#AEAEAE" >
</path>
<path d="M18.75 66.6667C18.75 49.4078 32.7411 35.4167 50 35.4167L150 35.4167C167.259 35.4167 181.25 49.4078 181.25 66.6667L181.25 133.333C181.25 150.592 167.259 164.583 150 164.583L50 164.583C32.7411 164.583 18.75 150.592 18.75 133.333L18.75 66.6667ZM50 47.9167C39.6447 47.9167 31.25 56.3113 31.25 66.6667L31.25 133.333C31.25 143.689 39.6447 152.083 50 152.083L150 152.083C160.355 152.083 168.75 143.689 168.75 133.333L168.75 66.6667C168.75 56.3113 160.355 47.9167 150 47.9167L50 47.9167Z" fill-rule="evenodd"  fill="#293147" >
</path>
</svg>
