<svg width="40" height="40" viewBox="0 0 40 40" fill="none" xmlns="http://www.w3.org/2000/svg">
<g clip-path="url(#clip0_1109_600)">
<path d="M0 13.1249V11.8749C0 10.8394 0.839453 9.99992 1.875 9.99992H30V6.24992C30 4.58062 32.0234 3.74664 33.2009 4.92406L39.4509 11.1741C40.183 11.9063 40.183 13.0935 39.4509 13.8257L33.2009 20.0757C32.0278 21.2485 30 20.4262 30 18.7499V14.9999H1.875C0.839453 14.9999 0 14.1605 0 13.1249ZM38.125 24.9999H10V21.2499C10 19.5848 7.97953 18.7437 6.79914 19.9241L0.549141 26.1741C-0.183047 26.9063 -0.183047 28.0935 0.549141 28.8257L6.79914 35.0757C7.9732 36.2497 10 35.4247 10 33.7499V29.9999H38.125C39.1605 29.9999 40 29.1605 40 28.1249V26.8749C40 25.8394 39.1605 24.9999 38.125 24.9999Z" fill="#293147"/>
</g>
<defs>
<clipPath id="clip0_1109_600">
<rect width="40" height="40" fill="white"/>
</clipPath>
</defs>
</svg>
