<svg width="2282" height="80" viewBox="0 0 2282 80" fill="none" xmlns="http://www.w3.org/2000/svg">
<g clip-path="url(#clip0_1109_680)">
<path d="M1318.82 5.2C1267.26 3.2 1201.33 5.52 1146.58 9.44C1092.74 13.36 984.837 28.24 917.31 38C744.388 63.76 612.301 73.6 477.932 77.76C424.093 79.44 366.833 80.56 242.046 75.76C117.259 70.96 -0.228271 55.28 -0.228271 55.28V0L2281.3 0V24.24C2281.3 24.24 2117.05 50.32 1919.94 48.64C1830.51 48.08 1708.24 43.28 1614.25 30.72C1565.88 24.24 1495.16 16.16 1432.43 11.36C1370.38 6.32 1342.32 6 1318.82 5.2Z" fill="white"/>
</g>
<defs>
<clipPath id="clip0_1109_680">
<rect width="2281.3" height="80" fill="white" transform="matrix(-1 0 0 1 2281.3 0)"/>
</clipPath>
</defs>
</svg>
