<svg width="15" height="15" viewBox="0 0 15 15" fill="none" xmlns="http://www.w3.org/2000/svg">
<g clip-path="url(#clip0_1109_718)">
<path d="M7.5 0.234375C3.35685 0.234375 0 3.48633 0 7.5C0 11.5137 3.35685 14.7656 7.5 14.7656C11.6431 14.7656 15 11.5137 15 7.5C15 3.48633 11.6431 0.234375 7.5 0.234375ZM11.1835 5.21191L9.95262 10.8311C9.86189 11.2295 9.61694 11.3262 9.2752 11.1387L7.4002 9.7998L6.49597 10.6436C6.39617 10.7402 6.31149 10.8223 6.11794 10.8223L6.25101 8.97363L9.72581 5.93262C9.87702 5.80371 9.69254 5.73047 9.49294 5.85938L5.19859 8.47852L3.34778 7.91894C2.94556 7.7959 2.93649 7.5293 3.43246 7.3418L10.6633 4.64062C10.999 4.52344 11.2923 4.71973 11.1835 5.21191Z" fill="white"/>
</g>
<defs>
<clipPath id="clip0_1109_718">
<rect width="15" height="15" fill="white"/>
</clipPath>
</defs>
</svg>
