<svg xmlns="http://www.w3.org/2000/svg" xmlns:xlink="http://www.w3.org/1999/xlink" width="200" height="200" viewBox="0 0 200 200" fill="none">
<path d="M84.2509 156.058C93.6705 162.791 106.328 162.791 115.748 156.058L136.37 141.319C147.861 133.106 154.68 119.85 154.68 105.726L154.68 59.045C154.68 54.3987 150.883 50.5981 146.199 50.5981C131.366 50.5981 116.889 45.7287 105.085 36.7295C102.081 34.4393 97.9172 34.4393 94.9131 36.7295C83.109 45.7287 68.6322 50.5981 53.7991 50.5981C49.1152 50.5981 45.3181 54.3987 45.3181 59.045L45.3181 105.726C45.3181 119.85 52.1372 133.106 63.6284 141.319L84.2509 156.058ZM53.7991 38.0981C65.9041 38.0981 77.7162 34.1217 87.3346 26.7889C94.8147 21.0861 105.184 21.0861 112.664 26.7889C122.282 34.1217 134.094 38.0981 146.199 38.0981C157.749 38.0981 167.18 47.4575 167.18 59.045L167.18 105.726C167.18 123.886 158.413 140.929 143.639 151.488L123.016 166.228C109.249 176.068 90.7495 176.068 76.9824 166.228L56.3599 151.488C41.5855 140.929 32.8181 123.886 32.8181 105.726L32.8181 59.045C32.8181 47.4575 42.2493 38.0981 53.7991 38.0981Z" fill-rule="evenodd"  fill="#293147" >
</path>
<path d="M100 116.246L112.634 109.637C116.069 107.84 118.222 104.284 118.222 100.407L118.222 82.3029L81.778 82.3029L81.778 100.407C81.778 104.284 83.9309 107.84 87.366 109.637L100 116.246ZM104.829 127.828C101.804 129.41 98.1961 129.41 95.1714 127.828L81.5717 120.713C74.0144 116.759 69.278 108.936 69.278 100.407L69.278 80.2195C69.278 74.4666 73.9417 69.8029 79.6946 69.8029L120.305 69.8029C126.058 69.8029 130.722 74.4666 130.722 80.2195L130.722 100.407C130.722 108.936 125.986 116.759 118.428 120.713L104.829 127.828Z" fill-rule="evenodd"  fill="#AEAEAE" >
</path>
</svg>
