<svg width="1427" height="80" viewBox="0 0 1427 80" fill="none" xmlns="http://www.w3.org/2000/svg">
<g clip-path="url(#clip0_1109_648)">
<path opacity="0.33" d="M674.64 53.84C383.817 124.48 299.38 26.64 217.796 53.84C94.1358 95.28 0 47.76 0 47.76V0H1426.3V47.76C1426.3 47.76 1337.73 68.64 1290.94 71.2C1244.16 73.84 1201.37 61.36 1182.83 53.52C1149.6 39.68 1063.02 6.96 991.136 3.76C919.25 0.56 702.31 47.2 674.64 53.84Z" fill="white"/>
<path opacity="0.66" d="M1046.9 53.84C982.008 53.84 936.794 35.28 862.769 22.56C821.977 15.6 648.396 14.48 500.489 53.84C352.581 93.2 369.697 26.32 287.685 53.84C165.023 94.64 0 31.84 0 31.84V0H1426.3V29.2C1426.3 29.2 1386.08 14.4 1294.94 14.4C1155.59 14.48 1106.38 53.84 1046.9 53.84Z" fill="white"/>
<path d="M1092.69 23.12C807.428 -22.88 713.293 75.52 529.157 38.72C345.165 1.44 345.165 4.32 263.58 16.48C182.566 28.64 188.699 35.92 128.224 42C40.7922 50.96 0 0 0 0H1426.3C1426.3 0 1412.18 32.72 1307.06 38.48C1201.94 44.24 1183.26 37.6 1092.69 23.12Z" fill="white"/>
</g>
<defs>
<clipPath id="clip0_1109_648">
<rect width="1426.3" height="80" fill="white"/>
</clipPath>
</defs>
</svg>
