<svg width="15" height="15" viewBox="0 0 15 15" fill="none" xmlns="http://www.w3.org/2000/svg">
<g clip-path="url(#clip0_1109_730)">
<path d="M12.8666 3.68422C11.1204 2.37772 9.4476 2.41432 9.4476 2.41432L9.2766 2.60962C11.3525 3.23242 12.3171 4.14817 12.3171 4.14817C9.34725 2.51302 5.56425 2.52472 2.47515 4.14817C2.47515 4.14817 3.4764 3.18352 5.67435 2.56072L5.55225 2.41417C5.55225 2.41417 3.8916 2.37757 2.1333 3.68407C2.1333 3.68407 0.375 6.84667 0.375 10.7419C0.375 10.7419 1.4007 12.5002 4.09935 12.5857C4.09935 12.5857 4.55115 12.0484 4.91745 11.5844C3.3666 11.1205 2.78055 10.1558 2.78055 10.1558C3.7548 10.7654 4.74 11.147 5.9676 11.3891C7.965 11.8003 10.4494 11.3776 12.3049 10.1558C12.3049 10.1558 11.6945 11.1449 10.0949 11.5967C10.4612 12.0485 10.9008 12.5735 10.9008 12.5735C13.5991 12.4882 14.6249 10.7299 14.6249 10.742C14.6249 6.84682 12.8666 3.68422 12.8666 3.68422ZM5.22255 9.60652C4.5387 9.60652 3.9771 9.00817 3.9771 8.26327C4.02705 6.47947 6.43065 6.48502 6.46815 8.26327C6.468 9.00817 5.91855 9.60652 5.22255 9.60652ZM9.6795 9.60652C8.99565 9.60652 8.43405 9.00817 8.43405 8.26327C8.48895 6.48292 10.8626 6.48217 10.9251 8.26327C10.925 9.00817 10.3755 9.60652 9.6795 9.60652Z" fill="white"/>
</g>
<defs>
<clipPath id="clip0_1109_730">
<rect width="15" height="15" fill="white"/>
</clipPath>
</defs>
</svg>
